# xmcd
#
# Track frame offsets:
#	150
#	14225
#	31300
#	45712
#	62525
#	82025
#	96062
#	110100
#	128475
#	146625
#
# Disc length: 2175
#
# Revision: 2
# Processed by: cddbd v1.5.1PL0 Copyright (c) Steve Scherf et al.
# Submitted via: dBpowerAMP V4.0
# Normalized: r0:TSWAP
#
DISCID=88087d0a
DTITLE=Various Artist - Biggest Country Hits of the 90's Vol. 3
DYEAR=1900
DGENRE=Country
TTITLE0=Mark Chestnut - Broken Promise Land
TTITLE1=Conway Twitty - Crazy In Love
TTITLE2=Marty Stuart - Little Things
TTITLE3=Reba McEntire - Till Love Comes Again
TTITLE4=Steve Warner - There For A While
TTITLE5=Patty Loveless - I'm That Kind Of Girl
TTITLE6=Vince Gill with Reba McEntire - Oklahoma Swing
TTITLE7=Lionel Cartwright - Leap Of Faith
TTITLE8=McBride And The Ride - Going Out Of My Mind
TTITLE9=Oak Ridge Boys - Baby, You'll Be My Baby
EXTD=
EXTT0=
EXTT1=
EXTT2=
EXTT3=
EXTT4=
EXTT5=
EXTT6=
EXTT7=
EXTT8=
EXTT9=
PLAYORDER=
